# xmcd CD database file
#
# Track frame offsets:
#	150
#	12415
#	30582
#	47440
#	61362
#	78850
#	93922
#	108917
#	122330
#	140600
#	157225
#	169947
#
# Disc length: 2441 seconds
#
# Revision: 1
# Processed by: cddbd v1.5.1PL0 Copyright (c) Steve Scherf et al.
# Submitted via: CDex 1.51
#
DISCID=9109870c
DTITLE=Joe Callicot - Ain't A Gonna Lie To You
DYEAR=2003
DGENRE=Blues
TTITLE0=Frankie And Albert
TTITLE1=Fare Thee Well Blues
TTITLE2=Laughing to Keep From Crying
TTITLE3=Lonesome Katy
TTITLE4=Come Home to Me Baby
TTITLE5=Fare You Well Blues
TTITLE6=France Chance
TTITLE7=Roll and Tumble
TTITLE8=Good Time Blues
TTITLE9=Goodbye Baby Blues
TTITLE10=Down to the River Jordan
TTITLE11=Let Your Deal Go Down
EXTD=YEAR: 2003
EXTT0=
EXTT1=
EXTT2=
EXTT3=
EXTT4=
EXTT5=
EXTT6=
EXTT7=
EXTT8=
EXTT9=
EXTT10=
EXTT11=
PLAYORDER=
